<svg width="100" height="100" xmlns="http://www.w3.org/2000/svg">
<g>
<path d="M70.432,92.8L59.496,79.094l-5.39,10.932l-5.652-11.469l-14.157,11.66L37.57,73.69L27.551,74.9l3.137-9.229l-17.063-1.922 l12.574-8.789L5.024,46.29l22.615-3.158L16.863,29.534l16.985,3.862l-2.092-12.155l10.806,5.688L43.6,7.024l10.707,17.564 l7.706-9.779L65.207,27.4l8.708-3.61l-0.006,9.56l19.184-5.561L80.169,43.695l11.754,4.333L81.32,54.714l13.259,10.764 l-16.803,0.405l5.447,13.283l-13.021-4.911L70.432,92.8z M58.726,71.989l7.738,9.695l-0.162-12.995l10.038,3.785l-4.221-10.287 l11.974-0.289l-9.332-7.576l8.545-5.388l-9.487-3.497l8.58-10.56L70.073,38.45l0.007-8.923l-7.496,3.109l-2.373-9.35l-6.306,8.002 L46.78,19.6l-0.704,13.508l-9.226-4.857l1.747,10.154l-11.975-2.722L34.801,46l-15.195,2.122l14.543,5.954l-10.018,7.002 l11.713,1.319l-2.708,7.969l9.216-1.112l-2.216,11.19l9.615-7.918l4.354,8.836L58.726,71.989z M71.895,51.799 c0-9.943-8.062-18.004-18.005-18.004c-9.943,0-18.004,8.061-18.004,18.004c0,9.944,8.061,18.004,18.004,18.004 C63.833,69.803,71.895,61.743,71.895,51.799z" stroke="none" fill="rgb(242, 206, 0)" style=""> </path>
</g>
</svg>